# xmcd
# 
# Track frame offsets:
#     150
#     18578
#     31408
#     59040
#     77592
#     99906
#     120645
#     135674
#     155771
#     167504
#     183655
#     195641
# 
# Disc length: 2671
# 
# Revision: 0
# Processed by: cddbd v1.5.2PL0 Copyright (c) Steve Scherf et al.
# Submitted via: fre:ac v1.0.17
# 
DISCID=9e0a6d0c
DTITLE=The Mutt Brothers - When A Bulldog Hugs A Hound
DYEAR=1998
DGENRE=Blues
TTITLE0=Devil's Daughter
TTITLE1=Long Legged Woman
TTITLE2=Three In The Morning
TTITLE3=Padlock Blues
TTITLE4=Other Side Of Hell
TTITLE5=Hoochie Coochie Man
TTITLE6=Forever Just Ended Today
TTITLE7=Price To Pay
TTITLE8=Hopeless Blues
TTITLE9=Born Under A Bad Sign
TTITLE10=Crosscut Saw
TTITLE11=Hunt's O House
EXTD=
EXTT0=
EXTT1=
EXTT2=
EXTT3=
EXTT4=
EXTT5=
EXTT6=
EXTT7=
EXTT8=
EXTT9=
EXTT10=
EXTT11=
PLAYORDER=
